<svg id="a72165a3-c5ba-49c6-9929-450570401138" data-name="Layer 1" xmlns="http://www.w3.org/2000/svg" width="757.96407" height="743.73221" viewBox="0 0 757.96407 743.73221"><path d="M312.47119,78.13389a32.036,32.036,0,0,0-32,32V788.56163a32.03635,32.03635,0,0,0,32,32H609.4707a32.03667,32.03667,0,0,0,32-32V110.13389a32.03635,32.03635,0,0,0-32-32Z" transform="translate(-221.01797 -78.13389)" fill="#e6e6e6"/><path d="M621.67605,235.11577v-54.44a125.24705,125.24705,0,0,1-80.85876-60.18884l-.00129.001a23.78924,23.78924,0,0,1-14.22,4.68H483.36752A178.54913,178.54913,0,0,0,621.67605,235.11577Z" transform="translate(-221.01797 -78.13389)" fill="#fff"/><path d="M621.67605,177.55577V125.258a29.12112,29.12112,0,0,0-29.13-29.13h-41.97v5.05a23.91657,23.91657,0,0,1-7.3988,17.32885A122.29834,122.29834,0,0,0,621.67605,177.55577Z" transform="translate(-221.01797 -78.13389)" fill="#fff"/><path d="M419.78732,125.168H392.756a23.987,23.987,0,0,1-23.98-23.99v-5.05h-39.38a29.12752,29.12752,0,0,0-29.13,29.13v648.2a29.07915,29.07915,0,0,0,29.13,29.11h263.15a28.36184,28.36184,0,0,0,3.59-.22,29.14642,29.14642,0,0,0,25.54-28.89V296.28581C525.967,285.19567,446.21792,216.90672,419.78732,125.168Z" transform="translate(-221.01797 -78.13389)" fill="#fff"/><path d="M480.08755,125.168H422.94729c26.3006,90.03875,104.67969,157.02771,198.72876,168.06787V238.21575A181.66783,181.66783,0,0,1,480.08755,125.168Z" transform="translate(-221.01797 -78.13389)" fill="#fff"/><path d="M601.62988,610.91514H331.62939a5.00589,5.00589,0,0,1-5-5V538.93956a5.00589,5.00589,0,0,1,5-5H601.62988a5.00588,5.00588,0,0,1,5,5v66.97558A5.00588,5.00588,0,0,1,601.62988,610.91514ZM331.62939,535.93956a3.00328,3.00328,0,0,0-3,3v66.97558a3.00328,3.00328,0,0,0,3,3H601.62988a3.00328,3.00328,0,0,0,3-3V538.93956a3.00328,3.00328,0,0,0-3-3Z" transform="translate(-221.01797 -78.13389)" fill="#e6e6e6"/><circle cx="145.61143" cy="494.2932" r="21" fill="#3f3d56"/><path d="M415.1294,558.42709a3.5,3.5,0,1,0,0,7h165a3.5,3.5,0,0,0,0-7Z" transform="translate(-221.01797 -78.13389)" fill="#e6e6e6"/><path d="M415.1294,579.42709a3.5,3.5,0,1,0,0,7h165a3.5,3.5,0,0,0,0-7Z" transform="translate(-221.01797 -78.13389)" fill="#e6e6e6"/><path d="M601.62988,722.91514H331.62939a5.00589,5.00589,0,0,1-5-5V650.93956a5.00589,5.00589,0,0,1,5-5H601.62988a5.00588,5.00588,0,0,1,5,5v66.97558A5.00588,5.00588,0,0,1,601.62988,722.91514ZM331.62939,647.93956a3.00328,3.00328,0,0,0-3,3v66.97558a3.00328,3.00328,0,0,0,3,3H601.62988a3.00328,3.00328,0,0,0,3-3V650.93956a3.00328,3.00328,0,0,0-3-3Z" transform="translate(-221.01797 -78.13389)" fill="#e6e6e6"/><circle cx="145.61143" cy="606.2932" r="21" fill="#3f3d56"/><path d="M415.1294,670.42709a3.5,3.5,0,1,0,0,7h165a3.5,3.5,0,0,0,0-7Z" transform="translate(-221.01797 -78.13389)" fill="#e6e6e6"/><path d="M415.1294,691.42709a3.5,3.5,0,1,0,0,7h165a3.5,3.5,0,0,0,0-7Z" transform="translate(-221.01797 -78.13389)" fill="#e6e6e6"/><path d="M460.94727,471.92979a94.95976,94.95976,0,0,1-95-94.99951c0-.19873.00048-.4082.01171-.60693.291-52.02539,42.90332-94.39307,94.98829-94.39307a95.0149,95.0149,0,0,1,42.185,180.145A94.10642,94.10642,0,0,1,460.94727,471.92979Zm0-187.99951a93.19835,93.19835,0,0,0-92.98975,92.45557c-.01074.2124-.01025.38281-.01025.54443a93.0003,93.0003,0,0,0,185.15918,12.50684,92.98055,92.98055,0,0,0-92.15918-105.50684Z" transform="translate(-221.01797 -78.13389)" fill="#e6e6e6"/><path d="M503.9699,381.52928l-65.02243-37.54072a2,2,0,0,0-3,1.73205v75.08145a2,2,0,0,0,3,1.73205l65.02243-37.54072a2,2,0,0,0,0-3.46411l-65.02243-37.54072a2,2,0,0,0-3,1.73205v75.08145a2,2,0,0,0,3,1.73205l65.02243-37.54072A2,2,0,0,0,503.9699,381.52928Z" transform="translate(-221.01797 -78.13389)" fill="#1db954"/><path d="M857.44747,368.43011l-44,5c.60064-13.51522-.54181-26.12177-5-37l36-13C841.22151,336.8885,847.27956,352.24021,857.44747,368.43011Z" transform="translate(-221.01797 -78.13389)" fill="#ffb8b8"/><path d="M862.75363,518.515,877.006,543.95765a13.21993,13.21993,0,0,1-5.24387,18.08866l0,0a13.21993,13.21993,0,0,1-19.45-10.37339l-2.31763-24.31461-7.89592-92.80977L828.63,373.50269l27.96382-7.93882,13.01631,68.6482Z" transform="translate(-221.01797 -78.13389)" fill="#ffb8b8"/><path d="M886.44747,789.43011l-18-1-40-178-85,179-18-1,52-276,1-50,65-4c24.29339,26.71661,38.05181,54.34646,40,83Z" transform="translate(-221.01797 -78.13389)" fill="#2f2e41"/><path d="M741.98759,820.68374c-3.40717,1.555-6.68282-11.41653-9.1351-8.21921-8.23547,10.73767-27.40979,7.36945-27.32391,6.12915a5.02517,5.02517,0,0,1-3.16746-6.5486h0a5.02523,5.02523,0,0,1,3.48647-3.1107L714.397,806.797l13.42383-23.60744,13.70384-.92578h0A32.74007,32.74007,0,0,1,747.58,810.19363C746.33644,815.26933,744.41663,819.57514,741.98759,820.68374Z" transform="translate(-221.01797 -78.13389)" fill="#2f2e41"/><path d="M884.06808,820.68374c-3.40717,1.555-6.68214-11.416-9.13514-8.21921-9.48785,12.36463-27.96259,8.097-27.32391,6.12915a5.02519,5.02519,0,0,1-3.16742-6.5486h0a5.02523,5.02523,0,0,1,3.48647-3.1107l8.54944-2.13736,13.42383-23.60744L884.531,781.338l.36951.60428a37.72071,37.72071,0,0,1,4.04224,30.84407C887.72608,816.68464,886.07,819.77006,884.06808,820.68374Z" transform="translate(-221.01797 -78.13389)" fill="#2f2e41"/><circle cx="596.4295" cy="236.29621" r="31" fill="#ffb8b8"/><path d="M845.44747,463.43011l-67,4-6-38c-6.21119-17.0817,1.55188-32.77381,14-48l26-29,36-1h0a26.8881,26.8881,0,0,1,18.29557,22.24769,106.4294,106.4294,0,0,1-11.1317,61.82579Z" transform="translate(-221.01797 -78.13389)" fill="#1db954"/><path d="M772.44747,548.43011l4.7943,28.76581A13.21993,13.21993,0,0,1,766.18213,592.44h0a13.21992,13.21992,0,0,1-14.78791-16.34708l6.05328-23.66282,24-90,8-62,29,2-11,69Z" transform="translate(-221.01797 -78.13389)" fill="#ffb8b8"/><path d="M854.62319,433.93011H853.906c-13.52208-11.71686-25.273-24.85178-15.7832-41.29589C830.0745,372.20676,821.102,350.99354,821.6442,337.87c.40106-9.70663-2.42494-19.37749-8.74278-26.75749-8.5523-9.99012-10.45577-14.45175-26.07547-10.67376l0,0a29.59715,29.59715,0,0,1,30.66984-29.98863l9.75866.35486c7.46517.27146,31.32334,3.32315,36.44564,8.24943a23.76593,23.76593,0,0,1,6.80357,19.98349c-.95743,8.14526,1.6123,15.33707,8.47786,21.36764,13.14421,13.592,18.5655,27.6952,11.11317,42.65044-5.62517,15.83232-5.35648,28.8641,9.15329,35.129h0v0C903.96028,416.27,873.31212,433.93011,854.62319,433.93011Z" transform="translate(-221.01797 -78.13389)" fill="#2f2e41"/><path d="M821.44747,412.43011c-12.41279-9.49594-24.74982-10.2461-37-1l3.34528-37.97331a20.64686,20.64686,0,0,1,19.66171-20.97941h0a20.64684,20.64684,0,0,1,21.626,20.96754Z" transform="translate(-221.01797 -78.13389)" fill="#1db954"/><ellipse cx="596.9295" cy="242.29621" rx="4" ry="7.5" fill="#ffb8b8"/><path d="M826.94747,303.1961v-33.266a3,3,0,0,0-3-3h-6a3,3,0,0,0-3,3v31.25946a18.96194,18.96194,0,1,0,12,2.00653Z" transform="translate(-221.01797 -78.13389)" fill="#1db954"/><circle cx="597.9295" cy="241.79621" r="9" fill="#fff"/><polygon points="757.569 743.732 0 743.732 0 741.551 757.964 741.551 757.569 743.732" fill="#3f3d56"/></svg>